<svg id="Layer_1" data-name="Layer 1" xmlns="http://www.w3.org/2000/svg" viewBox="0 0 30.36 3.1">
  <defs>
    <style>
      .cls-1 {
        font-size: 2.87px;
        font-family: TheBoldFont, The Bold Font;
      }

      .cls-1, .cls-2 {
        fill: #fff;
      }

      .cls-2 {
        fill-rule: evenodd;
      }
    </style>
  </defs>
  <text class="cls-1" transform="translate(0 2.44)"><tspan xml:space="preserve">ARTSY CR     FTSY STORE</tspan></text>
  <g>
    <path class="cls-2" d="M15.09,4.25c0,.06,0,.11,0,.17s-.09.14-.14.21-.2,0-.3,0,0,.19-.11.26-.06-.07-.05-.12a.43.43,0,0,1,0-.07c.08-.16.08-.2,0-.34a.15.15,0,0,0-.07-.2c0-.13,0-.27.16-.36-.09,0-.18,0-.22-.09a.54.54,0,0,1-.05-.21s-.07,0-.1-.05.09-.12,0-.21a.31.31,0,0,0-.16.06s.07-.08.05-.13-.06,0-.09-.05S14,3,14,3,14,2.9,14,2.84s.11,0,.09-.07a.45.45,0,0,0,.25.09,1,1,0,0,1,.8.69c-.06-.07-.09-.17-.17-.23a1.61,1.61,0,0,0-.23-.22c0,.11-.08.15-.14.2s0,.05,0,.07,0,0,0,0,.05,0,.07,0-.1,0-.13.07.14,0,.21,0-.15,0-.19.08a1.61,1.61,0,0,1,.69.1c.06-.09-.05-.24.11-.29,0,.1,0,.19,0,.29a1.55,1.55,0,0,1,.71-.09c-.06-.08-.13-.07-.19-.09s.12,0,.19,0-.09,0-.11-.07,0,0,0,0,0,0,0,0,0,0,0-.08-.15-.08-.14-.19a1.56,1.56,0,0,0-.42.47.67.67,0,0,1,.15-.32A1,1,0,0,1,16,2.94c.07,0,.14-.06.15-.17,0,.07.09,0,.13,0s0,.07.09.09.11.09.07.19l-.1.24s.06,0,.08.09-.07.05-.1.09c-.05.23-.07.26-.27.3a.36.36,0,0,1,.12.16c0,.06,0,.13,0,.18s-.06,0-.06.1.05.09.08.14,0,0-.05,0,0,0,0,.06-.12.11-.07.23l.06.13a.09.09,0,0,1,0,.13c-.05,0-.05-.07-.06-.12s-.08-.18-.21-.15-.26,0-.3-.21a4.13,4.13,0,0,0-.13-.5c.1.11.08.23.12.33s.13,0,.28,0c0-.08.08-.11,0-.19L16,4c-.05-.09-.15-.14-.19-.25s-.18,0-.26,0c0-.09-.1,0-.16,0s0,.23-.06.34c-.05-.11,0-.23-.05-.33s-.13,0-.17,0-.09-.06-.26,0-.14.15-.19.24.11,0,.11.12.09.09,0,.16a.26.26,0,0,1,.31,0Z" transform="translate(-1.54 -2.43)"/>
    <path class="cls-2" d="M15.36,3.06a.53.53,0,0,0,0,.18s0,.11-.05.12-.1,0-.11-.08S15.25,3.13,15.36,3.06Z" transform="translate(-1.54 -2.43)"/>
    <path class="cls-2" d="M15.09,4.25a.5.5,0,0,1,.12-.38l-.12.38Z" transform="translate(-1.54 -2.43)"/>
  </g>
</svg>
