<svg id="Layer_1" data-name="Layer 1" xmlns="http://www.w3.org/2000/svg" viewBox="0 0 137.92 36.28">
  <defs>
    <style>
      .cls-1 {
        fill: #eb447c;
      }

      .cls-2 {
        fill: #71c495;
      }

      .cls-3 {
        fill: #bdca36;
      }

      .cls-4 {
        fill: #fce93a;
      }

      .cls-5 {
        fill: #c82128;
      }

      .cls-6 {
        fill: #faa72b;
      }

      .cls-7 {
        fill: #ee4539;
      }

      .cls-8 {
        fill: #59a0d5;
      }

      .cls-9 {
        fill: #feee7d;
      }

      .cls-10 {
        fill: #d5df5c;
      }

      .cls-11 {
        fill: #ab6dae;
      }

      .cls-12 {
        fill: #3290cf;
      }

      .cls-13 {
        fill: #3eb174;
      }

      .cls-14 {
        fill: #e72065;
      }

      .cls-15 {
        fill: #9b51a0;
      }

      .cls-16 {
        fill: #f89821;
      }

      .cls-17 {
        font-size: 18.76px;
        fill: #fff;
        font-family: MADETOMMY-Medium, MADE TOMMY;
        font-weight: 500;
      }

      .cls-18 {
        letter-spacing: -0.01em;
      }
    </style>
  </defs>
  <g>
    <path class="cls-1" d="M12.05,38l-.05,0c0-1.14,0-2.27-.05-3.4,0-1,0-1.91,0-2.86,0-.36,0-.72,0-1.11L10.78,31,8.21,32c-.26-.85-.57-1.68-.79-2.54A16.78,16.78,0,0,1,7,25H7l1.81,2.05c.24.27.47.54.72.81.8.89,1.6,1.77,2.41,2.65l2,.67,3.89,1.2c.24.91.48,1.83.73,2.74.28,1.07.57,2.14.86,3.21l0,0-1.65-.11L15,38.12,13.7,38Z" transform="translate(-6.95 -7.25)"/>
    <path class="cls-2" d="M30.27,38.58c.27,0,.53,0,.8,0l2.76,0,3.25,0,.56,0-.46.44-.62.47a17.65,17.65,0,0,1-4.71,2.79l-.14,0c-.14-.35-.29-.69-.43-1-.35-.87-.69-1.74-1-2.6Z" transform="translate(-6.95 -7.25)"/>
    <path class="cls-3" d="M43.23,25.67v.13l-1,1.07c-.71.74-1.43,1.47-2.15,2.2l-1.78,1.79-.18.16a.58.58,0,0,1-.07-.11l-2-3.85c-.26-.49-.54-1-.8-1.46v-.07a1.15,1.15,0,0,0,.14-.17C36.12,23.9,37,22.45,37.82,21c.14-.25.26-.51.39-.77l0,0,0,0,.36.45,2,2.24,1.64,1.78a1.71,1.71,0,0,0,.11.14Z" transform="translate(-6.95 -7.25)"/>
    <path class="cls-4" d="M38.25,20.19l0,0L34.2,19l-1.84-.55,0,0a.65.65,0,0,0,0-.14l-1-3.8c-.18-.67-.34-1.34-.52-2l.41,0,2.86.13,1.13.05,3,.15,0,.05c0,.13,0,.26,0,.38,0,1.56,0,3.11.05,4.66C38.25,18.65,38.25,19.42,38.25,20.19Z" transform="translate(-6.95 -7.25)"/>
    <path class="cls-5" d="M12.52,12.33l0,0,.14,0,2.84-.05,2.81,0h1.17l.37,0a1.08,1.08,0,0,1,0,.19l-1.74,5.64-.24.11L14.65,19l-2.49.64s0,0,0-.07l.12-2.81.06-1.06C12.39,14.6,12.46,13.47,12.52,12.33Z" transform="translate(-6.95 -7.25)"/>
    <path class="cls-3" d="M35.16,25.6c.26.49.54,1,.8,1.47l2,3.85.08.1.18-.16L40,29.08l2.15-2.2,1-1.08a17.34,17.34,0,0,1-.94,5.38c-.18.51-.4,1-.6,1.51l-2.13-1-1.35-.59a.58.58,0,0,0-.14,0c-.29.06-.58.11-.87.18l-5.09,1.37h0l0,0,.06-.11Q33.64,29.07,35.16,25.6Z" transform="translate(-6.95 -7.25)"/>
    <path class="cls-1" d="M7,25A18.14,18.14,0,0,1,8.49,18.1a.35.35,0,0,1,0-.08,2.44,2.44,0,0,0,.28.14l3.31,1.55c-.51.53-1,1.07-1.52,1.59l-2,2.09L7,25Z" transform="translate(-6.95 -7.25)"/>
    <path class="cls-6" d="M25.42,7.26a17.84,17.84,0,0,1,6.8,1.45l.13.06c-.53,1.21-1.06,2.42-1.58,3.63l-.05,0-1.84-1.78-2-1.94L25.42,7.28Z" transform="translate(-6.95 -7.25)"/>
    <path class="cls-7" d="M20,12.23H18.35l-2.81,0-2.83,0a.38.38,0,0,1-.15,0,17.39,17.39,0,0,1,4.21-3c.56-.29,1.16-.52,1.74-.78L20,12.19S20,12.21,20,12.23Z" transform="translate(-6.95 -7.25)"/>
    <path class="cls-8" d="M19.4,38.37l0,0,0,0,.86.82,2.25,2.21,1.8,1.78c.12.12.25.22.38.33h0c-.91-.09-1.83-.13-2.74-.26A16,16,0,0,1,18,42.1L17.81,42Z" transform="translate(-6.95 -7.25)"/>
    <path class="cls-9" d="M30.77,12.4l1.58-3.63c.84.44,1.69.84,2.5,1.33a15.49,15.49,0,0,1,3.29,2.69l-3-.15-1.13-.05-2.86-.13-.41,0Z" transform="translate(-6.95 -7.25)"/>
    <path class="cls-9" d="M38.25,20.19c0-.77,0-1.54,0-2.31,0-1.55,0-3.1-.05-4.66,0-.12,0-.25,0-.38a16.3,16.3,0,0,1,2.17,2.72A16.7,16.7,0,0,1,42,18.77l-.06,0-3.63,1.41Z" transform="translate(-6.95 -7.25)"/>
    <path class="cls-10" d="M38.29,20.22l3.63-1.41.06,0a17.57,17.57,0,0,1,1.2,5.2c0,.56,0,1.13,0,1.7l-.82-.84a1.71,1.71,0,0,1-.11-.14l-1.64-1.78-2-2.24Z" transform="translate(-6.95 -7.25)"/>
    <path class="cls-6" d="M20,12.19,18.51,8.5c.71-.23,1.42-.5,2.14-.69a16.35,16.35,0,0,1,4.77-.55v0l-5.26,4.77Z" transform="translate(-6.95 -7.25)"/>
    <path class="cls-8" d="M30.24,38.62c.35.86.69,1.73,1,2.6.14.35.29.69.43,1-.86.27-1.71.58-2.59.8a16,16,0,0,1-4.08.47l-.32,0h0c.17-.14.34-.27.5-.42l1-.85L28.7,40l1.4-1.27A.37.37,0,0,1,30.24,38.62Z" transform="translate(-6.95 -7.25)"/>
    <path class="cls-11" d="M19.4,38.37,17.81,42c-.86-.46-1.74-.88-2.58-1.38a17.07,17.07,0,0,1-3.07-2.49,1.7,1.7,0,0,1-.1-.14l1.65.06,1.26.09,2.79.13Z" transform="translate(-6.95 -7.25)"/>
    <path class="cls-11" d="M8.23,32l2.56-1,1.12-.44c0,.39,0,.76,0,1.12,0,1,0,1.91,0,2.86,0,1.13,0,2.26,0,3.39a16,16,0,0,1-2.09-2.61,17.27,17.27,0,0,1-1.65-3.16A.65.65,0,0,1,8.23,32Z" transform="translate(-6.95 -7.25)"/>
    <path class="cls-7" d="M12.13,19.71,8.82,18.16A2.44,2.44,0,0,1,8.54,18a15.24,15.24,0,0,1,1.65-2.95,15.7,15.7,0,0,1,2.34-2.74c-.07,1.13-.13,2.27-.2,3.41,0,.35,0,.7-.05,1.06,0,.94-.09,1.87-.13,2.81a.19.19,0,0,0,0,.07l0,0Z" transform="translate(-6.95 -7.25)"/>
    <path class="cls-12" d="M30.24,38.62a.37.37,0,0,0-.14.07L28.7,40l-2.5,2.27-1,.85c-.16.15-.33.28-.5.42-.13-.11-.26-.21-.38-.33l-1.8-1.78-2.25-2.21-.86-.82.36-.21,5.09-2.69.08.06,3.52,2,1.74,1,0,0Z" transform="translate(-6.95 -7.25)"/>
    <path class="cls-13" d="M30.24,38.55l-1.74-1-3.52-2-.08-.06v0l7.17-2.8,0,0c-.47,1.5-.93,3-1.39,4.5Z" transform="translate(-6.95 -7.25)"/>
    <path class="cls-14" d="M7,25l1.61-1.62,2-2.09c.51-.52,1-1.06,1.52-1.59h0L15,25.2s0,0,0,0a.88.88,0,0,0-.12.15l-1.57,2.69c-.47.81-.95,1.62-1.42,2.44-.81-.88-1.61-1.77-2.41-2.65-.25-.27-.48-.54-.72-.82Z" transform="translate(-6.95 -7.25)"/>
    <path class="cls-12" d="M24.9,35.46l-5.09,2.69-.36.21,0,0c-.29-1.07-.58-2.14-.86-3.21-.25-.91-.49-1.83-.73-2.74l0,0,.62.28,6.41,2.8Z" transform="translate(-6.95 -7.25)"/>
    <path class="cls-15" d="M17.86,32.36l0,0-3.89-1.21c-.68-.21-1.35-.44-2-.66.47-.82.95-1.63,1.42-2.44l1.57-2.69a.88.88,0,0,1,.12-.15,1.51,1.51,0,0,1,.1.17L17,30.17C17.27,30.9,17.57,31.63,17.86,32.36Z" transform="translate(-6.95 -7.25)"/>
    <path class="cls-4" d="M35.14,25.53l-1.08-2.75C33.52,21.41,33,20,32.45,18.67l-.09-.25L34.2,19l4,1.25c-.13.26-.25.52-.39.77-.85,1.46-1.7,2.91-2.54,4.37A1.15,1.15,0,0,1,35.14,25.53Z" transform="translate(-6.95 -7.25)"/>
    <path class="cls-16" d="M32.33,18.39l-2.25-1-4.56-2-.19-.1.53-.32,4.86-2.58.05,0,0,0c.18.68.34,1.35.52,2l1,3.8A.65.65,0,0,1,32.33,18.39Z" transform="translate(-6.95 -7.25)"/>
    <path class="cls-5" d="M25.27,15.33l-2.05.82-4.95,1.93-.12,0,0,0c.58-1.88,1.17-3.76,1.74-5.64a1.08,1.08,0,0,0,0-.19l.06-.06.21-.14-.14.16c1.4.81,2.74,1.62,4.1,2.41C24.51,14.85,24.88,15.09,25.27,15.33Z" transform="translate(-6.95 -7.25)"/>
    <path class="cls-14" d="M18.12,18.08l0,0-1.47,3.33L15,25.2l-2.9-5.49,0,0L14.65,19l3.23-.86A1.73,1.73,0,0,0,18.12,18.08Z" transform="translate(-6.95 -7.25)"/>
    <path class="cls-16" d="M25.27,15.33c-.39-.24-.76-.48-1.15-.71L20,12.19c.07-.07,0,.05,0,0,1.76-1.59,3.71-3.31,5.46-4.9l1.46,1.43,2,1.94,1.84,1.78L25.86,15l-.53.32Z" transform="translate(-6.95 -7.25)"/>
    <path class="cls-15" d="M12.05,38l-.05,0c0-1.14,0-2.27-.05-3.4,0-1,0-1.91,0-2.86,0-.36,0-.77,0-1.16.33.11,0,1.14,0,0l2,.67,3.89,1.2c.24.91.48,1.83.73,2.74.28,1.07.57,2.14.86,3.21l0,0-1.65-.11L15,38.12,13.7,38Z" transform="translate(-6.95 -7.25)"/>
    <path class="cls-10" d="M38.26,30.88,40,29.09l2.15-2.2,1.05-1.08a17.24,17.24,0,0,1-.94,5.38c-.17.51-.39,1-.59,1.51l-2.14-1-1.35-.6s-.21.07-.2,0A1.79,1.79,0,0,1,38.26,30.88Z" transform="translate(-6.95 -7.25)"/>
    <path class="cls-13" d="M37.75,38.42l-.11.1-.56,0-3.25,0-2.76,0c-.27,0-.53,0-.8,0l0,0,.45-1.39c.46-1.5.92-3,1.39-4.5h0l5.09-1.37c.29-.08.58-.12.87-.18-.06,1-.12,2-.17,3-.08,1.38-.15,2.77-.22,4.16A.52.52,0,0,0,37.75,38.42Z" transform="translate(-6.95 -7.25)"/>
    <path class="cls-2" d="M37.75,38.42a.52.52,0,0,1-.08-.19c.07-1.39.14-2.78.22-4.16,0-1,.11-2,.17-3l.14,0,1.35.6,2.14,1a13.77,13.77,0,0,1-1.67,3c-.56.76-1.2,1.48-1.8,2.22,0,0,0,.08,0,.12Z" transform="translate(-6.95 -7.25)"/>
  </g>
  <text class="cls-17" transform="translate(43.32 25.45)">I<tspan class="cls-18" x="4.97" y="0">nt</tspan><tspan x="22.64" y="0">elligems</tspan></text>
</svg>
